<svg id="Layer_1" data-name="Layer 1" xmlns="http://www.w3.org/2000/svg" viewBox="0 0 424.08 447.6"><defs><style>.cls-1{fill:#fefefe;}.cls-2{fill:#9df9f9;}.cls-3{fill:#c8fbfb;}.cls-4{fill:#e6fdfd;}</style></defs><path class="cls-1" d="M255.81,479.6H44V236.48a2.17,2.17,0,0,1,.23.52c.42,2.35.64,4.75,1.27,7a16.41,16.41,0,0,0,6.9,9.73,24.16,24.16,0,0,0,12.75,3.52c4.48.14,9-.19,13.48-.42,3.22-.16,6.42-.48,9.62-.73,4.16-.32,8.32-.81,12.48-.89s8.12.15,12.17.45a35,35,0,0,1,11.82,2.72c3.57,1.58,7,3.49,10.45,5.3a214.92,214.92,0,0,0,31.23,13.36,258.38,258.38,0,0,0,30.21,8.13c6,1.26,12.07,2.27,18.29,1.47a41.08,41.08,0,0,0,19.5-7.61,32.87,32.87,0,0,0,12-16,31.06,31.06,0,0,0,1.51-8,45.06,45.06,0,0,0-.47-11.43,31.77,31.77,0,0,0-10.21-18A38.48,38.48,0,0,0,221.22,217c-5.21-1.45-10.5-2.7-15.6-4.51a74.65,74.65,0,0,1-27.48-17.21,57,57,0,0,1-8.73-11.06,42.85,42.85,0,0,1-6.07-30.74,47.18,47.18,0,0,1,3.81-11.16,52.58,52.58,0,0,1,12.62-16.7A79.39,79.39,0,0,1,196.51,114a102.14,102.14,0,0,1,25.69-9.27,110.7,110.7,0,0,1,19-2.56,131.83,131.83,0,0,1,14.47.22c4.83.32,9.66.87,14.44,1.67a98,98,0,0,1,25.9,8.22,79.64,79.64,0,0,1,18.73,12.13A57.22,57.22,0,0,1,326.39,138a40.42,40.42,0,0,0,12.68,13.33,60.48,60.48,0,0,0,32,9.84,74.17,74.17,0,0,0,17.72-1.2,65.56,65.56,0,0,0,13.54-4.27c6.62-3,12.45-7,16.92-12.77a25.22,25.22,0,0,0,5.39-13.23c.5-5.44-1-10.4-3.72-15.09a126.43,126.43,0,0,0-14.49-20.34,121,121,0,0,0-15.86-15.43C385,74.31,379.11,70,373.1,66.05a181.23,181.23,0,0,0-32.78-16.77,195.62,195.62,0,0,0-26.57-8.73c-7.67-1.88-15.44-3.44-23.21-4.92-4.32-.82-8.72-1.26-13.11-1.72-5.48-.56-11-1-16.49-1.41-2.74-.2-5.49-.2-8.24-.29a1.48,1.48,0,0,1,0-.21H468.08V479.6H271.88a1.76,1.76,0,0,1,0-.23c1.67-.08,3.35-.12,5-.24,4.91-.38,9.84-.67,14.73-1.24,5.05-.58,10.1-1.29,15.1-2.23a169,169,0,0,0,29.91-8.23q10-3.85,19.68-8.44a147.85,147.85,0,0,0,13.06-7.3,170.35,170.35,0,0,0,29.34-22.58,190,190,0,0,0,18.09-19.94,210.73,210.73,0,0,0,20.32-31.28c7.21-13.5,12.66-27.73,17.59-42.17,4.69-13.74,9.14-27.55,11.58-41.9.6-3.57,1-7.17,1.3-10.77.2-2.48,0-5,0-7.49a25.69,25.69,0,0,0-1.7-9.47,16.24,16.24,0,0,0-9.21-9.68,31,31,0,0,0-11.79-2.1c-4.13,0-8.26.4-12.39.65-2.57.15-5.15.29-7.72.52-3.12.26-6.23.85-9.35.87-5.78,0-11.56.44-17.33-.4a45,45,0,0,1-13.63-3.82c-3.25-1.61-6.39-3.46-9.61-5.13A214.12,214.12,0,0,0,336,231.61a222.52,222.52,0,0,0-28-6.45,41.52,41.52,0,0,0-13.07.13,39.4,39.4,0,0,0-14.49,5.37,36,36,0,0,0-12.7,12.91c-4.56,8-4.54,16.61-3.09,25.25,1.13,6.77,4.8,12.33,9.84,17a37.56,37.56,0,0,0,17.74,9.2,95.19,95.19,0,0,1,19.53,6.32,74.79,74.79,0,0,1,23.67,16.79,55.36,55.36,0,0,1,8.86,12.44,43.19,43.19,0,0,1,4.67,15,42.3,42.3,0,0,1-.16,11.41c-1.54,9.54-6,17.7-12.38,24.82a74.24,74.24,0,0,1-20.54,15.7,96.27,96.27,0,0,1-25.78,9.37c-4.62,1-9.32,1.58-14,2.19a82.57,82.57,0,0,1-9,.68c-3.51.08-7-.08-10.52-.21a58.55,58.55,0,0,1-7-.5c-4.24-.67-8.47-1.43-12.65-2.38a95.51,95.51,0,0,1-31.24-12.94A65.47,65.47,0,0,1,189.23,379c-2-2.54-3.59-5.36-5.45-8a43.28,43.28,0,0,0-16.41-13.81,65.06,65.06,0,0,0-27.17-6.67,73.44,73.44,0,0,0-14.29.78,59.51,59.51,0,0,0-22.49,8c-6.42,4-11.72,9.08-14.61,16.29a22.2,22.2,0,0,0-1.56,10.91,28.64,28.64,0,0,0,3.81,10.74,120.4,120.4,0,0,0,17.38,23.53,125.41,125.41,0,0,0,10.21,9.76c4.62,3.92,9.37,7.7,14.29,11.22a180.78,180.78,0,0,0,33.82,18.64,223.36,223.36,0,0,0,31.65,10.85,228.85,228.85,0,0,0,31.14,6c4.81.56,9.62,1.2,14.44,1.6,3.93.33,7.87.36,11.81.53A1.69,1.69,0,0,1,255.81,479.6Z" transform="translate(-44 -32)"/><path class="cls-2" d="M252.7,32.21c2.75.09,5.5.09,8.24.29,5.5.4,11,.85,16.49,1.41,4.39.46,8.79.9,13.11,1.72,7.77,1.48,15.54,3,23.21,4.92a195.62,195.62,0,0,1,26.57,8.73A181.23,181.23,0,0,1,373.1,66.05c6,4,11.85,8.26,17.49,12.74a121,121,0,0,1,15.86,15.43,126.43,126.43,0,0,1,14.49,20.34c2.69,4.69,4.22,9.65,3.72,15.09a25.22,25.22,0,0,1-5.39,13.23c-4.47,5.81-10.3,9.8-16.92,12.77a65.56,65.56,0,0,1-13.54,4.27,74.17,74.17,0,0,1-17.72,1.2,60.48,60.48,0,0,1-32-9.84A40.42,40.42,0,0,1,326.39,138a57.22,57.22,0,0,0-11.65-13.56A79.64,79.64,0,0,0,296,112.26a98,98,0,0,0-25.9-8.22c-4.78-.8-9.61-1.35-14.44-1.67a131.83,131.83,0,0,0-14.47-.22,110.7,110.7,0,0,0-19,2.56A102.14,102.14,0,0,0,196.51,114a79.39,79.39,0,0,0-16.74,11.67,52.58,52.58,0,0,0-12.62,16.7,47.18,47.18,0,0,0-3.81,11.16,42.85,42.85,0,0,0,6.07,30.74,57,57,0,0,0,8.73,11.06,74.65,74.65,0,0,0,27.48,17.21c5.1,1.81,10.39,3.06,15.6,4.51a38.48,38.48,0,0,1,16.06,8.66,31.77,31.77,0,0,1,10.21,18A45.06,45.06,0,0,1,248,255.1a31.06,31.06,0,0,1-1.51,8,32.87,32.87,0,0,1-12,16,41.08,41.08,0,0,1-19.5,7.61c-6.22.8-12.25-.21-18.29-1.47a258.38,258.38,0,0,1-30.21-8.13,214.92,214.92,0,0,1-31.23-13.36c-3.46-1.81-6.88-3.72-10.45-5.3a35,35,0,0,0-11.82-2.72c-4.05-.3-8.12-.53-12.17-.45s-8.32.57-12.48.89c-3.2.25-6.4.57-9.62.73-4.49.23-9,.56-13.48.42a24.16,24.16,0,0,1-12.75-3.52A16.41,16.41,0,0,1,45.5,244c-.63-2.29-.85-4.69-1.27-7a2.17,2.17,0,0,0-.23-.52v-7.2a2.17,2.17,0,0,0,.23-.52c.72-4.91,1.28-9.84,2.17-14.72,1.89-10.41,5-20.5,8.29-30.54,2.05-6.3,4.18-12.58,6.59-18.74,3-7.69,6.07-15.37,9.56-22.85,2.9-6.21,6.28-12.22,9.73-18.15a185.55,185.55,0,0,1,38.07-46c5.09-4.4,10.41-8.57,15.88-12.49A166.66,166.66,0,0,1,164.9,48.32a177.83,177.83,0,0,1,21.82-7.85,175.8,175.8,0,0,1,29.17-6.09c6.46-.73,13-1.32,19.43-1.88,2.66-.22,5.34-.2,8-.28Z" transform="translate(-44 -32)"/><path class="cls-1" d="M243.33,32.22c-2.67.08-5.35.06-8,.28-6.48.56-13,1.15-19.43,1.88a175.8,175.8,0,0,0-29.17,6.09,177.83,177.83,0,0,0-21.82,7.85,166.66,166.66,0,0,0-30.38,16.95c-5.47,3.92-10.79,8.09-15.88,12.49a185.55,185.55,0,0,0-38.07,46c-3.45,5.93-6.83,11.94-9.73,18.15-3.49,7.48-6.56,15.16-9.56,22.85-2.41,6.16-4.54,12.44-6.59,18.74-3.27,10-6.4,20.13-8.29,30.54-.89,4.88-1.45,9.81-2.17,14.72a2.17,2.17,0,0,1-.23.52V32H243.33Z" transform="translate(-44 -32)"/><path class="cls-3" d="M271.88,479.37a1.76,1.76,0,0,0,0,.23H255.81a1.69,1.69,0,0,0,0-.23Z" transform="translate(-44 -32)"/><path class="cls-4" d="M243.33,32.22V32h9.36a1.48,1.48,0,0,0,0,.21Z" transform="translate(-44 -32)"/><path class="cls-2" d="M271.88,479.37H255.8c-3.94-.17-7.88-.2-11.81-.53-4.82-.4-9.63-1-14.44-1.6a228.85,228.85,0,0,1-31.14-6,223.36,223.36,0,0,1-31.65-10.85,180.78,180.78,0,0,1-33.82-18.64c-4.92-3.52-9.67-7.3-14.29-11.22a125.41,125.41,0,0,1-10.21-9.76,120.4,120.4,0,0,1-17.38-23.53,28.64,28.64,0,0,1-3.81-10.74,22.2,22.2,0,0,1,1.56-10.91c2.89-7.21,8.19-12.26,14.61-16.29a59.51,59.51,0,0,1,22.49-8,73.44,73.44,0,0,1,14.29-.78,65.06,65.06,0,0,1,27.17,6.67A43.28,43.28,0,0,1,183.78,371c1.86,2.65,3.47,5.47,5.45,8a65.47,65.47,0,0,0,16.42,14.71,95.51,95.51,0,0,0,31.24,12.94c4.18.95,8.41,1.71,12.65,2.38a58.55,58.55,0,0,0,7,.5c3.5.13,7,.29,10.52.21a82.57,82.57,0,0,0,9-.68c4.68-.61,9.38-1.23,14-2.19a96.27,96.27,0,0,0,25.78-9.37,74.24,74.24,0,0,0,20.54-15.7c6.41-7.12,10.84-15.28,12.38-24.82a42.3,42.3,0,0,0,.16-11.41,43.19,43.19,0,0,0-4.67-15,55.36,55.36,0,0,0-8.86-12.44,74.79,74.79,0,0,0-23.67-16.79A95.19,95.19,0,0,0,292.22,295a37.56,37.56,0,0,1-17.74-9.2c-5-4.66-8.71-10.22-9.84-17-1.45-8.64-1.47-17.26,3.09-25.25a36,36,0,0,1,12.7-12.91,39.4,39.4,0,0,1,14.49-5.37,41.52,41.52,0,0,1,13.07-.13,222.52,222.52,0,0,1,28,6.45A214.12,214.12,0,0,1,374.9,247c3.22,1.67,6.36,3.52,9.61,5.13A45,45,0,0,0,398.14,256c5.77.84,11.55.42,17.33.4,3.12,0,6.23-.61,9.35-.87,2.57-.23,5.15-.37,7.72-.52,4.13-.25,8.26-.69,12.39-.65a31,31,0,0,1,11.79,2.1,16.24,16.24,0,0,1,9.21,9.68,25.69,25.69,0,0,1,1.7,9.47c-.05,2.5.16,5,0,7.49-.29,3.6-.7,7.2-1.3,10.77-2.44,14.35-6.89,28.16-11.58,41.9-4.93,14.44-10.38,28.67-17.59,42.17a210.73,210.73,0,0,1-20.32,31.28,190,190,0,0,1-18.09,19.94,170.35,170.35,0,0,1-29.34,22.58,147.85,147.85,0,0,1-13.06,7.3q-9.68,4.58-19.68,8.44a169,169,0,0,1-29.91,8.23c-5,.94-10.05,1.65-15.1,2.23-4.89.57-9.82.86-14.73,1.24C275.23,479.25,273.55,479.29,271.88,479.37Z" transform="translate(-44 -32)"/></svg>