<?xml version="1.0" encoding="utf-8"?>
<!-- Generator: Adobe Illustrator 25.3.1, SVG Export Plug-In . SVG Version: 6.00 Build 0)  -->
<svg version="1.1" id="Layer_1" xmlns="http://www.w3.org/2000/svg" xmlns:xlink="http://www.w3.org/1999/xlink" x="0px" y="0px"
	 viewBox="0 0 512 512" style="enable-background:new 0 0 512 512;" xml:space="preserve">
<path d="M255,20C125.2,20,20,125.2,20,255s105.2,235,235,235s235-105.2,235-235S384.8,20,255,20z M313.6,436.7
	c-18.9,0-34.2-15.3-34.2-34.2c0-18.9,15.3-34.2,34.2-34.2c18.9,0,34.2,15.3,34.2,34.2C347.8,421.4,332.5,436.7,313.6,436.7z
	 M430.6,301.4c-14.7,33.6-30.3,48.2-39,58.6c-11.1,13.3-19.1,12.3-28.9,8.6c-13.5-5-17.7-14.9-13.1-40.4c2.1-11.8,22-30,30.5-47.6
	c12.7-26.2,11.5-47.9,17.6-60.1c4.6-9.3,15.8-23.5,27.2-19.3c11,4.1,21.6,10.3,19.8,33.2C443.6,248.3,443.2,272.6,430.6,301.4z"/>
</svg>
